# xmcd
#
# Track frame offsets:
#	150
#	14562
#	27439
#	36675
#	51581
#	70006
#	81336
#	97533
#	107467
#	119402
#	129685
#	143610
#	153374
#	164334
#	177308
#	190101
#	203623
#	218505
#	239957
#
# Disc length: 3344
#
# Revision: 1
# Processed by: cddbd v1.5.1PL0 Copyright (c) Steve Scherf et al.
# Submitted via: CDex 1.51
# Normalized: r0:TDELIM( - )
#
DISCID=0d0d0e13
DTITLE=Various Artist - Country Hits
DYEAR=1992
DGENRE=Country
TTITLE0=Bellamy Brothers - If I Said You Had a Beautiful Body
TTITLE1=Lynn Anderson - Rose Garden
TTITLE2=Frankie Laine - Rawhide
TTITLE3=Bellamy Brothers - Lovers Live Longer
TTITLE4=Carmen and Thompson - The Sun Goes Down
TTITLE5=Wanda Jackson - In The Middle Of a Heartache
TTITLE6=Lynn Anderson - The Devil Went Down To Georgia
TTITLE7=Johnny Cash - Rock Island Line
TTITLE8=Justin Tubb - Lodi
TTITLE9=Jimmie Rodgers - Oh-o Im Falling In Love Again
TTITLE10=Willie Nelson - Home Is Where Youre Happy
TTITLE11=Faron Young - Country Girl
TTITLE12=Waylon Jennings - Dream Baby
TTITLE13=Don Williams - Where Do We Go From Here
TTITLE14=Johnny Cash - Folsom Prison Blues
TTITLE15=Jimmy Dean - Big Bad John
TTITLE16=Kingston Trio - Tom Dooley
TTITLE17=Phil Carmen - Borderline Down
TTITLE18=Loretta Lynn - Hey Loretta
EXTD=YEAR: 1992
EXTT0=
EXTT1=
EXTT2=
EXTT3=
EXTT4=
EXTT5=
EXTT6=
EXTT7=
EXTT8=
EXTT9=
EXTT10=
EXTT11=
EXTT12=
EXTT13=
EXTT14=
EXTT15=
EXTT16=
EXTT17=
EXTT18=
PLAYORDER=
